# xmcd CD database file
#
# Track frame offsets:
#	150
#	13119
#	38844
#	53724
#	82930
#	107632
#
# Disc length: 1618 seconds
#
# Revision: 0
# Processed by: cddbd v1.5.1PL0 Copyright (c) Steve Scherf et al.
# Submitted via: CDex 1.51
#
DISCID=3d065006
DTITLE=GEMIX - Trauma
DYEAR=1900
DGENRE=未分類 (日本)
TTITLE0=海賊のガンダム [G GENERATION F]
TTITLE1=十字架と悪魔城と鞭 [悪魔城ドラキュラ]
TTITLE2=黙示録 [beatmaniaIIDX]
TTITLE3=quad-09 [original]
TTITLE4=攻めろ小牧山！ [信長の野望Online]
TTITLE5=是瑠陀之遊郭 [ゼルダの伝説]
EXTD=
EXTT0=
EXTT1=
EXTT2=
EXTT3=
EXTT4=
EXTT5=
PLAYORDER=
